<svg width="1273" height="720" viewBox="0 0 1273 720" fill="none" xmlns="http://www.w3.org/2000/svg">
<g clip-path="url(#clip0_29_2)">
<g filter="url(#filter0_dii_29_2)">
<path d="M942.665 190.008C942.665 190.008 971.862 129.307 1068.51 127.42C1165.15 125.532 1240.92 206.455 1240.8 306.173C1240.68 405.891 1177.16 505.632 1072.41 506.255C967.654 506.879 904.476 421.64 903.887 337.125C903.298 252.611 970.348 203.43 970.348 203.43C970.348 203.43 928.048 243.84 932.436 334.09C936.824 424.34 993.394 492.167 1059.91 497.145C1126.43 502.124 1211.14 440.216 1202.06 307.172C1192.97 174.127 1115.91 154.302 1079.5 147.933C1047.82 142.392 972.457 146.053 942.665 190.008Z" fill="#C6D2FF"/>
</g>
<g filter="url(#filter1_dii_29_2)">
<path d="M793.293 123.705L785.477 191.703C780.609 210.317 777.243 232.27 743.32 235.568L676.443 242.273L743.32 252.954C775.934 259.52 773.745 278.269 777.939 325.535L793.293 508.845L808.557 325.535C812.508 277.854 810.495 258.792 843.3 252.954L910.181 242.273L843.3 235.568C809.378 232.27 805.597 209.753 801.1 191.703L793.293 123.705Z" fill="#C6D2FF"/>
</g>
<g filter="url(#filter2_dii_29_2)">
<path d="M491.599 88.0816C425 83 365 142 365 142C413.5 104 478 86.5492 551.5 125C604.5 162 625.649 193.942 625.649 289.127V455.017H663.435V229.756C663.214 170.303 659.201 148.101 677.457 135.532C677.457 135.532 681.766 129.731 711.125 123.951C673.521 129.832 656.329 132.035 635.442 131.284C593.132 128.168 555.944 88.5686 491.599 88.0816Z" fill="#C6D2FF"/>
<path d="M664.044 453.213C664.044 453.213 656.398 514.91 709.358 485.952C762.319 456.994 802.168 444.241 802.168 444.241C802.168 444.241 869.251 414.841 924.016 488.296C978.78 561.751 923.416 657.643 774.124 675.839C762.357 676.499 953.297 662.078 896.608 510.704C885.003 481.911 832.154 432.104 740.571 476.023C648.988 519.943 625.735 517.043 625.813 452.824C625.891 388.605 664.044 453.213 664.044 453.213Z" fill="#C6D2FF"/>
<path d="M782.59 582.082C782.59 582.082 558.68 452.553 526.854 582.326C522.187 608.412 532.243 656.703 635.093 674.8C587.222 662.475 560.57 644.709 560.563 591.488C560.556 538.268 629.671 527.06 782.59 582.082Z" fill="#C6D2FF"/>
<path d="M641.721 17.1358L638.703 39.227C637.936 44.8389 635.352 50.0452 631.347 54.0502C627.342 58.0553 622.136 60.6389 616.524 61.4062L594.433 64.424L616.524 67.4417C622.136 68.209 627.342 70.7926 631.347 74.7977C635.352 78.8028 637.936 84.009 638.703 89.6209L641.721 111.712L644.739 89.6209C645.506 84.009 648.089 78.8028 652.094 74.7977C656.099 70.7926 661.306 68.209 666.918 67.4417L689.009 64.424L666.918 61.4062C661.306 60.6389 656.099 58.0553 652.094 54.0502C648.089 50.0452 645.506 44.8389 644.739 39.227L641.721 17.1358Z" fill="#C6D2FF"/>
</g>
<g filter="url(#filter3_dii_29_2)">
<path d="M550.003 239.301C549.211 217.113 548.077 206.61 535.366 186.009C521.664 163.803 484.616 123.483 418.932 150.216C393.884 162.812 378.943 176.717 369.357 194.924C343.612 243.613 342.272 290.352 341.109 323.508C341.853 491.646 469.687 499.904 521.617 506.509C459.338 505.936 428.345 500.272 391.06 479.754C366.397 465.603 351.756 454.209 329.37 420.758C315.763 392.454 304.553 361.275 304.553 320.646C304.553 280.472 313.231 241.829 327.457 213.957C342.331 184.816 365.865 162.03 388.402 146.509C413.093 131.584 433.075 124.869 463.266 124.869C492.606 124.869 514.53 129.805 535.366 143.5C584.185 177.976 598.195 217.089 598.427 257.667L376.037 238.342L550.003 239.301Z" fill="#C6D2FF"/>
</g>
<g filter="url(#filter4_dii_29_2)">
<path d="M181.677 124.769C161.57 124.769 133.217 132.181 111.043 143.613C93.3079 152.703 71.3111 166.986 49.3525 191.31C49.3525 191.31 19.7441 222.565 13.1758 277.4V395.492C54.6933 428.09 54.5192 507.619 54.5192 507.619V312.685C54.5192 268.743 60.9885 236.646 70.712 211.517C82.7232 180.476 124.042 136.903 159.131 136.562C224.345 135.928 237.419 207.894 237.991 266.707C239.182 322.165 235.838 397.734 222.577 437.33C195.63 517.789 100.239 605.808 51.9722 629.043C51.9722 629.043 118.118 602.979 170.514 556.742C224.026 509.52 260.44 441.28 270.455 403.166C282.618 356.876 280.49 228.939 280.49 228.939C280.49 187.654 266.845 165.927 260.406 156.849C243.283 132.71 219.527 124.769 181.677 124.769Z" fill="#C6D2FF"/>
</g>
</g>
<defs>
<filter id="filter0_dii_29_2" x="883.883" y="107.387" width="376.918" height="418.872" filterUnits="userSpaceOnUse" color-interpolation-filters="sRGB">
<feFlood flood-opacity="0" result="BackgroundImageFix"/>
<feColorMatrix in="SourceAlpha" type="matrix" values="0 0 0 0 0 0 0 0 0 0 0 0 0 0 0 0 0 0 127 0" result="hardAlpha"/>
<feOffset/>
<feGaussianBlur stdDeviation="10"/>
<feComposite in2="hardAlpha" operator="out"/>
<feColorMatrix type="matrix" values="0 0 0 0 0.486275 0 0 0 0 0.52549 0 0 0 0 1 0 0 0 1 0"/>
<feBlend mode="normal" in2="BackgroundImageFix" result="effect1_dropShadow_29_2"/>
<feBlend mode="normal" in="SourceGraphic" in2="effect1_dropShadow_29_2" result="shape"/>
<feColorMatrix in="SourceAlpha" type="matrix" values="0 0 0 0 0 0 0 0 0 0 0 0 0 0 0 0 0 0 127 0" result="hardAlpha"/>
<feOffset dx="4" dy="3"/>
<feGaussianBlur stdDeviation="5"/>
<feComposite in2="hardAlpha" operator="arithmetic" k2="-1" k3="1"/>
<feColorMatrix type="matrix" values="0 0 0 0 0.486275 0 0 0 0 0.52549 0 0 0 0 1 0 0 0 1 0"/>
<feBlend mode="normal" in2="shape" result="effect2_innerShadow_29_2"/>
<feColorMatrix in="SourceAlpha" type="matrix" values="0 0 0 0 0 0 0 0 0 0 0 0 0 0 0 0 0 0 127 0" result="hardAlpha"/>
<feOffset dx="-4" dy="3"/>
<feGaussianBlur stdDeviation="5"/>
<feComposite in2="hardAlpha" operator="arithmetic" k2="-1" k3="1"/>
<feColorMatrix type="matrix" values="0 0 0 0 0.486275 0 0 0 0 0.52549 0 0 0 0 1 0 0 0 1 0"/>
<feBlend mode="normal" in2="effect2_innerShadow_29_2" result="effect3_innerShadow_29_2"/>
</filter>
<filter id="filter1_dii_29_2" x="656.443" y="103.705" width="273.738" height="425.141" filterUnits="userSpaceOnUse" color-interpolation-filters="sRGB">
<feFlood flood-opacity="0" result="BackgroundImageFix"/>
<feColorMatrix in="SourceAlpha" type="matrix" values="0 0 0 0 0 0 0 0 0 0 0 0 0 0 0 0 0 0 127 0" result="hardAlpha"/>
<feOffset/>
<feGaussianBlur stdDeviation="10"/>
<feComposite in2="hardAlpha" operator="out"/>
<feColorMatrix type="matrix" values="0 0 0 0 0.486275 0 0 0 0 0.52549 0 0 0 0 1 0 0 0 1 0"/>
<feBlend mode="normal" in2="BackgroundImageFix" result="effect1_dropShadow_29_2"/>
<feBlend mode="normal" in="SourceGraphic" in2="effect1_dropShadow_29_2" result="shape"/>
<feColorMatrix in="SourceAlpha" type="matrix" values="0 0 0 0 0 0 0 0 0 0 0 0 0 0 0 0 0 0 127 0" result="hardAlpha"/>
<feOffset dx="4" dy="3"/>
<feGaussianBlur stdDeviation="5"/>
<feComposite in2="hardAlpha" operator="arithmetic" k2="-1" k3="1"/>
<feColorMatrix type="matrix" values="0 0 0 0 0.486275 0 0 0 0 0.52549 0 0 0 0 1 0 0 0 1 0"/>
<feBlend mode="normal" in2="shape" result="effect2_innerShadow_29_2"/>
<feColorMatrix in="SourceAlpha" type="matrix" values="0 0 0 0 0 0 0 0 0 0 0 0 0 0 0 0 0 0 127 0" result="hardAlpha"/>
<feOffset dx="-4" dy="3"/>
<feGaussianBlur stdDeviation="5"/>
<feComposite in2="hardAlpha" operator="arithmetic" k2="-1" k3="1"/>
<feColorMatrix type="matrix" values="0 0 0 0 0.486275 0 0 0 0 0.52549 0 0 0 0 1 0 0 0 1 0"/>
<feBlend mode="normal" in2="effect2_innerShadow_29_2" result="effect3_innerShadow_29_2"/>
</filter>
<filter id="filter2_dii_29_2" x="345" y="-2.8642" width="619.697" height="698.724" filterUnits="userSpaceOnUse" color-interpolation-filters="sRGB">
<feFlood flood-opacity="0" result="BackgroundImageFix"/>
<feColorMatrix in="SourceAlpha" type="matrix" values="0 0 0 0 0 0 0 0 0 0 0 0 0 0 0 0 0 0 127 0" result="hardAlpha"/>
<feOffset/>
<feGaussianBlur stdDeviation="10"/>
<feComposite in2="hardAlpha" operator="out"/>
<feColorMatrix type="matrix" values="0 0 0 0 0.486275 0 0 0 0 0.52549 0 0 0 0 1 0 0 0 1 0"/>
<feBlend mode="normal" in2="BackgroundImageFix" result="effect1_dropShadow_29_2"/>
<feBlend mode="normal" in="SourceGraphic" in2="effect1_dropShadow_29_2" result="shape"/>
<feColorMatrix in="SourceAlpha" type="matrix" values="0 0 0 0 0 0 0 0 0 0 0 0 0 0 0 0 0 0 127 0" result="hardAlpha"/>
<feOffset dx="4" dy="3"/>
<feGaussianBlur stdDeviation="5"/>
<feComposite in2="hardAlpha" operator="arithmetic" k2="-1" k3="1"/>
<feColorMatrix type="matrix" values="0 0 0 0 0.486275 0 0 0 0 0.52549 0 0 0 0 1 0 0 0 1 0"/>
<feBlend mode="normal" in2="shape" result="effect2_innerShadow_29_2"/>
<feColorMatrix in="SourceAlpha" type="matrix" values="0 0 0 0 0 0 0 0 0 0 0 0 0 0 0 0 0 0 127 0" result="hardAlpha"/>
<feOffset dx="-4" dy="3"/>
<feGaussianBlur stdDeviation="5"/>
<feComposite in2="hardAlpha" operator="arithmetic" k2="-1" k3="1"/>
<feColorMatrix type="matrix" values="0 0 0 0 0.486275 0 0 0 0 0.52549 0 0 0 0 1 0 0 0 1 0"/>
<feBlend mode="normal" in2="effect2_innerShadow_29_2" result="effect3_innerShadow_29_2"/>
</filter>
<filter id="filter3_dii_29_2" x="284.553" y="104.869" width="333.873" height="421.64" filterUnits="userSpaceOnUse" color-interpolation-filters="sRGB">
<feFlood flood-opacity="0" result="BackgroundImageFix"/>
<feColorMatrix in="SourceAlpha" type="matrix" values="0 0 0 0 0 0 0 0 0 0 0 0 0 0 0 0 0 0 127 0" result="hardAlpha"/>
<feOffset/>
<feGaussianBlur stdDeviation="10"/>
<feComposite in2="hardAlpha" operator="out"/>
<feColorMatrix type="matrix" values="0 0 0 0 0.486275 0 0 0 0 0.52549 0 0 0 0 1 0 0 0 1 0"/>
<feBlend mode="normal" in2="BackgroundImageFix" result="effect1_dropShadow_29_2"/>
<feBlend mode="normal" in="SourceGraphic" in2="effect1_dropShadow_29_2" result="shape"/>
<feColorMatrix in="SourceAlpha" type="matrix" values="0 0 0 0 0 0 0 0 0 0 0 0 0 0 0 0 0 0 127 0" result="hardAlpha"/>
<feOffset dx="4" dy="3"/>
<feGaussianBlur stdDeviation="5"/>
<feComposite in2="hardAlpha" operator="arithmetic" k2="-1" k3="1"/>
<feColorMatrix type="matrix" values="0 0 0 0 0.486275 0 0 0 0 0.52549 0 0 0 0 1 0 0 0 1 0"/>
<feBlend mode="normal" in2="shape" result="effect2_innerShadow_29_2"/>
<feColorMatrix in="SourceAlpha" type="matrix" values="0 0 0 0 0 0 0 0 0 0 0 0 0 0 0 0 0 0 127 0" result="hardAlpha"/>
<feOffset dx="-4" dy="3"/>
<feGaussianBlur stdDeviation="5"/>
<feComposite in2="hardAlpha" operator="arithmetic" k2="-1" k3="1"/>
<feColorMatrix type="matrix" values="0 0 0 0 0.486275 0 0 0 0 0.52549 0 0 0 0 1 0 0 0 1 0"/>
<feBlend mode="normal" in2="effect2_innerShadow_29_2" result="effect3_innerShadow_29_2"/>
</filter>
<filter id="filter4_dii_29_2" x="-6.82422" y="104.769" width="307.458" height="544.273" filterUnits="userSpaceOnUse" color-interpolation-filters="sRGB">
<feFlood flood-opacity="0" result="BackgroundImageFix"/>
<feColorMatrix in="SourceAlpha" type="matrix" values="0 0 0 0 0 0 0 0 0 0 0 0 0 0 0 0 0 0 127 0" result="hardAlpha"/>
<feOffset/>
<feGaussianBlur stdDeviation="10"/>
<feComposite in2="hardAlpha" operator="out"/>
<feColorMatrix type="matrix" values="0 0 0 0 0.486275 0 0 0 0 0.52549 0 0 0 0 1 0 0 0 1 0"/>
<feBlend mode="normal" in2="BackgroundImageFix" result="effect1_dropShadow_29_2"/>
<feBlend mode="normal" in="SourceGraphic" in2="effect1_dropShadow_29_2" result="shape"/>
<feColorMatrix in="SourceAlpha" type="matrix" values="0 0 0 0 0 0 0 0 0 0 0 0 0 0 0 0 0 0 127 0" result="hardAlpha"/>
<feOffset dx="4" dy="3"/>
<feGaussianBlur stdDeviation="5"/>
<feComposite in2="hardAlpha" operator="arithmetic" k2="-1" k3="1"/>
<feColorMatrix type="matrix" values="0 0 0 0 0.486275 0 0 0 0 0.52549 0 0 0 0 1 0 0 0 1 0"/>
<feBlend mode="normal" in2="shape" result="effect2_innerShadow_29_2"/>
<feColorMatrix in="SourceAlpha" type="matrix" values="0 0 0 0 0 0 0 0 0 0 0 0 0 0 0 0 0 0 127 0" result="hardAlpha"/>
<feOffset dx="-4" dy="3"/>
<feGaussianBlur stdDeviation="5"/>
<feComposite in2="hardAlpha" operator="arithmetic" k2="-1" k3="1"/>
<feColorMatrix type="matrix" values="0 0 0 0 0.486275 0 0 0 0 0.52549 0 0 0 0 1 0 0 0 1 0"/>
<feBlend mode="normal" in2="effect2_innerShadow_29_2" result="effect3_innerShadow_29_2"/>
</filter>
<clipPath id="clip0_29_2">
<rect width="1273" height="719.458" fill="white"/>
</clipPath>
</defs>
</svg>
