<svg width="1287" height="719" viewBox="0 0 1287 719" fill="none" xmlns="http://www.w3.org/2000/svg">
<g clip-path="url(#clip0_29_2)">
<g filter="url(#filter0_dii_29_2)">
<path d="M956.665 190.008C956.665 190.008 985.862 129.307 1082.51 127.42C1179.15 125.532 1254.92 206.455 1254.8 306.173C1254.68 405.891 1191.16 505.632 1086.41 506.255C981.654 506.879 918.476 421.64 917.887 337.125C917.298 252.611 984.348 203.43 984.348 203.43C984.348 203.43 942.048 243.84 946.436 334.09C950.824 424.34 1007.39 492.167 1073.91 497.145C1140.43 502.124 1225.14 440.216 1216.06 307.172C1206.97 174.127 1129.91 154.302 1093.5 147.933C1061.82 142.392 986.457 146.053 956.665 190.008Z" fill="#C6D2FF"/>
</g>
<g filter="url(#filter1_dii_29_2)">
<path d="M807.293 123.705L799.477 191.703C794.609 210.317 791.243 232.27 757.32 235.568L690.443 242.273L757.32 252.954C789.934 259.52 787.745 278.269 791.939 325.535L807.293 508.845L822.557 325.535C826.508 277.854 824.495 258.792 857.3 252.954L924.181 242.273L857.3 235.568C823.378 232.27 819.597 209.753 815.1 191.703L807.293 123.705Z" fill="#C6D2FF"/>
</g>
<g filter="url(#filter2_dii_29_2)">
<path d="M505.599 88.0816C439 83 379 142 379 142C427.5 104 492 86.5492 565.5 125C618.5 162 639.649 193.942 639.649 289.127V455.017H677.435V229.756C677.214 170.303 673.201 148.101 691.457 135.532C691.457 135.532 695.766 129.731 725.125 123.951C687.521 129.832 670.329 132.035 649.442 131.284C607.132 128.168 569.944 88.5686 505.599 88.0816Z" fill="#C6D2FF"/>
<path d="M678.044 453.213C678.044 453.213 670.398 514.91 723.358 485.952C776.319 456.994 816.168 444.241 816.168 444.241C816.168 444.241 883.251 414.841 938.016 488.296C992.78 561.751 937.416 657.643 788.124 675.839C776.357 676.499 967.297 662.078 910.608 510.704C899.003 481.911 846.154 432.104 754.571 476.023C662.988 519.943 639.735 517.043 639.813 452.824C639.891 388.605 678.044 453.213 678.044 453.213Z" fill="#C6D2FF"/>
<path d="M796.59 582.082C796.59 582.082 572.68 452.553 540.854 582.326C536.187 608.412 546.243 656.703 649.093 674.8C601.222 662.475 574.57 644.709 574.563 591.488C574.556 538.268 643.671 527.06 796.59 582.082Z" fill="#C6D2FF"/>
<path d="M655.721 17.1358L652.703 39.227C651.936 44.8389 649.352 50.0452 645.347 54.0502C641.342 58.0553 636.136 60.6389 630.524 61.4062L608.433 64.424L630.524 67.4417C636.136 68.209 641.342 70.7926 645.347 74.7977C649.352 78.8028 651.936 84.009 652.703 89.6209L655.721 111.712L658.739 89.6209C659.506 84.009 662.089 78.8028 666.094 74.7977C670.099 70.7926 675.306 68.209 680.918 67.4417L703.009 64.424L680.918 61.4062C675.306 60.6389 670.099 58.0553 666.094 54.0502C662.089 50.0452 659.506 44.8389 658.739 39.227L655.721 17.1358Z" fill="#C6D2FF"/>
</g>
<g filter="url(#filter3_dii_29_2)">
<path d="M564.003 239.301C563.211 217.113 562.077 206.61 549.366 186.009C535.664 163.803 498.616 123.483 432.932 150.216C407.884 162.812 392.943 176.717 383.357 194.924C357.612 243.613 356.272 290.352 355.109 323.508C355.853 491.646 483.687 499.904 535.617 506.509C473.338 505.936 442.345 500.272 405.06 479.754C380.397 465.603 365.756 454.209 343.37 420.758C329.763 392.454 318.553 361.275 318.553 320.646C318.553 280.472 327.231 241.829 341.457 213.957C356.331 184.816 379.865 162.03 402.402 146.509C427.093 131.584 447.075 124.869 477.266 124.869C506.606 124.869 528.53 129.805 549.366 143.5C598.185 177.976 612.195 217.089 612.427 257.667L390.037 238.342L564.003 239.301Z" fill="#C6D2FF"/>
</g>
<g filter="url(#filter4_dii_29_2)">
<path d="M195.677 124.769C175.57 124.769 147.217 132.181 125.043 143.613C107.308 152.703 85.3111 166.986 63.3525 191.31C63.3525 191.31 33.7441 222.565 27.1758 277.4V395.492C68.6933 428.09 68.5192 507.619 68.5192 507.619V312.685C68.5192 268.743 74.9885 236.646 84.712 211.517C96.7232 180.476 138.042 136.903 173.131 136.562C238.345 135.928 251.419 207.894 251.991 266.707C253.182 322.165 249.838 397.734 236.577 437.33C209.63 517.789 114.239 605.808 65.9722 629.043C65.9722 629.043 132.118 602.979 184.514 556.742C238.026 509.52 274.44 441.28 284.455 403.166C296.618 356.876 294.49 228.939 294.49 228.939C294.49 187.654 280.845 165.927 274.406 156.849C257.283 132.71 233.527 124.769 195.677 124.769Z" fill="#C6D2FF"/>
</g>
</g>
<defs>
<filter id="filter0_dii_29_2" x="897.883" y="107.387" width="376.918" height="418.872" filterUnits="userSpaceOnUse" color-interpolation-filters="sRGB">
<feFlood flood-opacity="0" result="BackgroundImageFix"/>
<feColorMatrix in="SourceAlpha" type="matrix" values="0 0 0 0 0 0 0 0 0 0 0 0 0 0 0 0 0 0 127 0" result="hardAlpha"/>
<feOffset/>
<feGaussianBlur stdDeviation="10"/>
<feComposite in2="hardAlpha" operator="out"/>
<feColorMatrix type="matrix" values="0 0 0 0 0.486275 0 0 0 0 0.52549 0 0 0 0 1 0 0 0 1 0"/>
<feBlend mode="normal" in2="BackgroundImageFix" result="effect1_dropShadow_29_2"/>
<feBlend mode="normal" in="SourceGraphic" in2="effect1_dropShadow_29_2" result="shape"/>
<feColorMatrix in="SourceAlpha" type="matrix" values="0 0 0 0 0 0 0 0 0 0 0 0 0 0 0 0 0 0 127 0" result="hardAlpha"/>
<feOffset dx="4" dy="3"/>
<feGaussianBlur stdDeviation="5"/>
<feComposite in2="hardAlpha" operator="arithmetic" k2="-1" k3="1"/>
<feColorMatrix type="matrix" values="0 0 0 0 0.486275 0 0 0 0 0.52549 0 0 0 0 1 0 0 0 1 0"/>
<feBlend mode="normal" in2="shape" result="effect2_innerShadow_29_2"/>
<feColorMatrix in="SourceAlpha" type="matrix" values="0 0 0 0 0 0 0 0 0 0 0 0 0 0 0 0 0 0 127 0" result="hardAlpha"/>
<feOffset dx="-4" dy="3"/>
<feGaussianBlur stdDeviation="5"/>
<feComposite in2="hardAlpha" operator="arithmetic" k2="-1" k3="1"/>
<feColorMatrix type="matrix" values="0 0 0 0 0.486275 0 0 0 0 0.52549 0 0 0 0 1 0 0 0 1 0"/>
<feBlend mode="normal" in2="effect2_innerShadow_29_2" result="effect3_innerShadow_29_2"/>
</filter>
<filter id="filter1_dii_29_2" x="670.443" y="103.705" width="273.738" height="425.141" filterUnits="userSpaceOnUse" color-interpolation-filters="sRGB">
<feFlood flood-opacity="0" result="BackgroundImageFix"/>
<feColorMatrix in="SourceAlpha" type="matrix" values="0 0 0 0 0 0 0 0 0 0 0 0 0 0 0 0 0 0 127 0" result="hardAlpha"/>
<feOffset/>
<feGaussianBlur stdDeviation="10"/>
<feComposite in2="hardAlpha" operator="out"/>
<feColorMatrix type="matrix" values="0 0 0 0 0.486275 0 0 0 0 0.52549 0 0 0 0 1 0 0 0 1 0"/>
<feBlend mode="normal" in2="BackgroundImageFix" result="effect1_dropShadow_29_2"/>
<feBlend mode="normal" in="SourceGraphic" in2="effect1_dropShadow_29_2" result="shape"/>
<feColorMatrix in="SourceAlpha" type="matrix" values="0 0 0 0 0 0 0 0 0 0 0 0 0 0 0 0 0 0 127 0" result="hardAlpha"/>
<feOffset dx="4" dy="3"/>
<feGaussianBlur stdDeviation="5"/>
<feComposite in2="hardAlpha" operator="arithmetic" k2="-1" k3="1"/>
<feColorMatrix type="matrix" values="0 0 0 0 0.486275 0 0 0 0 0.52549 0 0 0 0 1 0 0 0 1 0"/>
<feBlend mode="normal" in2="shape" result="effect2_innerShadow_29_2"/>
<feColorMatrix in="SourceAlpha" type="matrix" values="0 0 0 0 0 0 0 0 0 0 0 0 0 0 0 0 0 0 127 0" result="hardAlpha"/>
<feOffset dx="-4" dy="3"/>
<feGaussianBlur stdDeviation="5"/>
<feComposite in2="hardAlpha" operator="arithmetic" k2="-1" k3="1"/>
<feColorMatrix type="matrix" values="0 0 0 0 0.486275 0 0 0 0 0.52549 0 0 0 0 1 0 0 0 1 0"/>
<feBlend mode="normal" in2="effect2_innerShadow_29_2" result="effect3_innerShadow_29_2"/>
</filter>
<filter id="filter2_dii_29_2" x="359" y="-2.8642" width="619.697" height="698.724" filterUnits="userSpaceOnUse" color-interpolation-filters="sRGB">
<feFlood flood-opacity="0" result="BackgroundImageFix"/>
<feColorMatrix in="SourceAlpha" type="matrix" values="0 0 0 0 0 0 0 0 0 0 0 0 0 0 0 0 0 0 127 0" result="hardAlpha"/>
<feOffset/>
<feGaussianBlur stdDeviation="10"/>
<feComposite in2="hardAlpha" operator="out"/>
<feColorMatrix type="matrix" values="0 0 0 0 0.486275 0 0 0 0 0.52549 0 0 0 0 1 0 0 0 1 0"/>
<feBlend mode="normal" in2="BackgroundImageFix" result="effect1_dropShadow_29_2"/>
<feBlend mode="normal" in="SourceGraphic" in2="effect1_dropShadow_29_2" result="shape"/>
<feColorMatrix in="SourceAlpha" type="matrix" values="0 0 0 0 0 0 0 0 0 0 0 0 0 0 0 0 0 0 127 0" result="hardAlpha"/>
<feOffset dx="4" dy="3"/>
<feGaussianBlur stdDeviation="5"/>
<feComposite in2="hardAlpha" operator="arithmetic" k2="-1" k3="1"/>
<feColorMatrix type="matrix" values="0 0 0 0 0.486275 0 0 0 0 0.52549 0 0 0 0 1 0 0 0 1 0"/>
<feBlend mode="normal" in2="shape" result="effect2_innerShadow_29_2"/>
<feColorMatrix in="SourceAlpha" type="matrix" values="0 0 0 0 0 0 0 0 0 0 0 0 0 0 0 0 0 0 127 0" result="hardAlpha"/>
<feOffset dx="-4" dy="3"/>
<feGaussianBlur stdDeviation="5"/>
<feComposite in2="hardAlpha" operator="arithmetic" k2="-1" k3="1"/>
<feColorMatrix type="matrix" values="0 0 0 0 0.486275 0 0 0 0 0.52549 0 0 0 0 1 0 0 0 1 0"/>
<feBlend mode="normal" in2="effect2_innerShadow_29_2" result="effect3_innerShadow_29_2"/>
</filter>
<filter id="filter3_dii_29_2" x="298.553" y="104.869" width="333.873" height="421.64" filterUnits="userSpaceOnUse" color-interpolation-filters="sRGB">
<feFlood flood-opacity="0" result="BackgroundImageFix"/>
<feColorMatrix in="SourceAlpha" type="matrix" values="0 0 0 0 0 0 0 0 0 0 0 0 0 0 0 0 0 0 127 0" result="hardAlpha"/>
<feOffset/>
<feGaussianBlur stdDeviation="10"/>
<feComposite in2="hardAlpha" operator="out"/>
<feColorMatrix type="matrix" values="0 0 0 0 0.486275 0 0 0 0 0.52549 0 0 0 0 1 0 0 0 1 0"/>
<feBlend mode="normal" in2="BackgroundImageFix" result="effect1_dropShadow_29_2"/>
<feBlend mode="normal" in="SourceGraphic" in2="effect1_dropShadow_29_2" result="shape"/>
<feColorMatrix in="SourceAlpha" type="matrix" values="0 0 0 0 0 0 0 0 0 0 0 0 0 0 0 0 0 0 127 0" result="hardAlpha"/>
<feOffset dx="4" dy="3"/>
<feGaussianBlur stdDeviation="5"/>
<feComposite in2="hardAlpha" operator="arithmetic" k2="-1" k3="1"/>
<feColorMatrix type="matrix" values="0 0 0 0 0.486275 0 0 0 0 0.52549 0 0 0 0 1 0 0 0 1 0"/>
<feBlend mode="normal" in2="shape" result="effect2_innerShadow_29_2"/>
<feColorMatrix in="SourceAlpha" type="matrix" values="0 0 0 0 0 0 0 0 0 0 0 0 0 0 0 0 0 0 127 0" result="hardAlpha"/>
<feOffset dx="-4" dy="3"/>
<feGaussianBlur stdDeviation="5"/>
<feComposite in2="hardAlpha" operator="arithmetic" k2="-1" k3="1"/>
<feColorMatrix type="matrix" values="0 0 0 0 0.486275 0 0 0 0 0.52549 0 0 0 0 1 0 0 0 1 0"/>
<feBlend mode="normal" in2="effect2_innerShadow_29_2" result="effect3_innerShadow_29_2"/>
</filter>
<filter id="filter4_dii_29_2" x="7.17578" y="104.769" width="307.458" height="544.273" filterUnits="userSpaceOnUse" color-interpolation-filters="sRGB">
<feFlood flood-opacity="0" result="BackgroundImageFix"/>
<feColorMatrix in="SourceAlpha" type="matrix" values="0 0 0 0 0 0 0 0 0 0 0 0 0 0 0 0 0 0 127 0" result="hardAlpha"/>
<feOffset/>
<feGaussianBlur stdDeviation="10"/>
<feComposite in2="hardAlpha" operator="out"/>
<feColorMatrix type="matrix" values="0 0 0 0 0.486275 0 0 0 0 0.52549 0 0 0 0 1 0 0 0 1 0"/>
<feBlend mode="normal" in2="BackgroundImageFix" result="effect1_dropShadow_29_2"/>
<feBlend mode="normal" in="SourceGraphic" in2="effect1_dropShadow_29_2" result="shape"/>
<feColorMatrix in="SourceAlpha" type="matrix" values="0 0 0 0 0 0 0 0 0 0 0 0 0 0 0 0 0 0 127 0" result="hardAlpha"/>
<feOffset dx="4" dy="3"/>
<feGaussianBlur stdDeviation="5"/>
<feComposite in2="hardAlpha" operator="arithmetic" k2="-1" k3="1"/>
<feColorMatrix type="matrix" values="0 0 0 0 0.486275 0 0 0 0 0.52549 0 0 0 0 1 0 0 0 1 0"/>
<feBlend mode="normal" in2="shape" result="effect2_innerShadow_29_2"/>
<feColorMatrix in="SourceAlpha" type="matrix" values="0 0 0 0 0 0 0 0 0 0 0 0 0 0 0 0 0 0 127 0" result="hardAlpha"/>
<feOffset dx="-4" dy="3"/>
<feGaussianBlur stdDeviation="5"/>
<feComposite in2="hardAlpha" operator="arithmetic" k2="-1" k3="1"/>
<feColorMatrix type="matrix" values="0 0 0 0 0.486275 0 0 0 0 0.52549 0 0 0 0 1 0 0 0 1 0"/>
<feBlend mode="normal" in2="effect2_innerShadow_29_2" result="effect3_innerShadow_29_2"/>
</filter>
<clipPath id="clip0_29_2">
<rect width="1287" height="719" fill="white"/>
</clipPath>
</defs>
</svg>
